<?xml version="1.0" standalone="no"?>
<!DOCTYPE svg PUBLIC "-//W3C//DTD SVG 20010904//EN"
 "http://www.w3.org/TR/2001/REC-SVG-20010904/DTD/svg10.dtd">
<svg version="1.0" xmlns="http://www.w3.org/2000/svg"
 width="144.000000pt" height="144.000000pt" viewBox="0 0 144.000000 144.000000"
 preserveAspectRatio="xMidYMid meet">
<metadata>
Created by potrace 1.14, written by Peter Selinger 2001-2017
</metadata>
<g transform="translate(0.000000,144.000000) scale(0.100000,-0.100000)"
fill="#000000" stroke="none">
<path d="M300 1433 c-8 -3 -23 -14 -33 -24 -18 -17 -19 -40 -14 -686 2 -367 7
-675 11 -684 4 -9 20 -19 36 -22 47 -10 792 -7 833 2 61 15 66 28 64 179 -3
183 18 170 -284 172 -130 0 -238 2 -239 3 -2 1 -4 231 -6 511 -2 461 -4 511
-19 530 -16 20 -28 21 -176 23 -87 1 -165 0 -173 -4z"/>
</g>
</svg>
