<svg xmlns="http://www.w3.org/2000/svg" width="64" height="64" viewBox="0 0 25.6 25.6" xmlnsV="https://vecta.io/nano"><path d="M23.581 19.941c-1.392-.039-2.472.104-3.378.485-.261.105-.679.105-.713.433.139.138.156.363.278.554.209.346.575.813.905 1.055l1.114.796c.679.415 1.445.657 2.106 1.073.383.242.766.554 1.149.814.195.138.313.364.557.45v-.052c-.122-.155-.157-.38-.278-.554l-.523-.501c-.505-.675-1.132-1.263-1.811-1.747-.557-.381-1.776-.9-2.002-1.54l-.034-.039c.382-.039.835-.173 1.201-.277.592-.155 1.132-.121 1.74-.277l.836-.242v-.155c-.313-.311-.54-.727-.87-1.021-.888-.761-1.863-1.505-2.873-2.128-.54-.346-1.236-.571-1.811-.865-.21-.104-.557-.156-.679-.329-.314-.38-.488-.882-.714-1.333l-1.427-3.011c-.313-.675-.505-1.35-.888-1.972-1.793-2.942-3.744-4.724-6.738-6.471-.644-.363-1.41-.52-2.224-.71l-1.306-.07c-.279-.121-.557-.45-.801-.606C3.405 1.077.846-.272.114 1.506c-.47 1.125.697 2.232 1.093 2.803.297.398.679.848.889 1.298.117.294.156.606.278.917l.905 2.319.644 1.073c.139.194.383.277.435.588-.244.346-.261.865-.4 1.298-.627 1.955-.383 4.378.505 5.817.279.432.937 1.384 1.829 1.021.784-.311.609-1.298.835-2.163.053-.207.018-.346.122-.485v.039l.714 1.436c.54.848 1.48 1.73 2.263 2.319.418.311.748.848 1.271 1.038v-.052h-.034c-.105-.155-.261-.225-.401-.346-.313-.311-.661-.692-.905-1.038-.731-.969-1.375-2.042-1.95-3.149-.279-.536-.523-1.125-.748-1.661-.105-.208-.105-.52-.279-.623-.261.38-.644.71-.836 1.177-.331.744-.365 1.661-.487 2.613-.07.017-.039 0-.07.039-.556-.138-.748-.71-.957-1.194-.522-1.229-.61-3.201-.157-4.62.122-.363.645-1.505.436-1.851-.105-.329-.453-.519-.645-.779a6.98 6.98 0 0 1-.626-1.107c-.418-.97-.626-2.042-1.079-3.011-.21-.45-.575-.917-.871-1.332-.331-.467-.696-.796-.957-1.35-.087-.194-.209-.502-.069-.71.034-.138.105-.194.243-.225.226-.194.871.052 1.097.155.644.26 1.184.502 1.723.865.244.173.505.502.819.589h.366c.557.121 1.184.039 1.705.194.923.295 1.758.727 2.508 1.194 2.28 1.436 4.161 3.478 5.432 5.918.209.398.296.761.488 1.177l1.184 2.544c.366.813.714 1.644 1.236 2.319.261.363 1.306.553 1.776.744.348.155.888.295 1.202.485l1.74 1.177c.278.207 1.149.64 1.201.985zM5.825 4.905c-.241-.002-.48.027-.713.086v.039h.034c.139.277.383.467.557.71l.401.831.034-.039c.244-.173.366-.45.366-.865-.105-.121-.122-.242-.209-.363-.105-.173-.331-.26-.471-.398z" fill-rule="evenodd" fill="#00678c"/></svg>