<svg width="1440" height="220" viewBox="0 0 1440 220" fill="none" xmlns="http://www.w3.org/2000/svg">
<path d="M0.000995726 -0.000125889L1440 0L1440 219.208C1416.14 210.508 1391.05 202.144 1365.43 194.344C1339.72 186.519 1312.86 179.077 1285.59 172.225C1258.18 165.336 1229.69 158.877 1200.92 153.025C1171.94 147.133 1141.97 141.715 1111.84 136.925C1081.43 132.09 1050.12 127.773 1018.78 124.096C987.09 120.379 954.585 117.222 922.164 114.715C889.342 112.176 855.787 110.239 822.429 108.958C788.616 107.658 754.154 107 720 107C685.846 107 651.385 107.659 617.571 108.958C584.213 110.24 550.658 112.177 517.837 114.715C485.417 117.223 452.912 120.379 421.225 124.096C389.88 127.773 358.57 132.09 328.164 136.925C298.035 141.716 268.064 147.134 239.083 153.025C210.317 158.874 181.829 165.333 154.41 172.225C127.142 179.077 100.281 186.519 74.573 194.344C48.957 202.144 23.867 210.506 0 219.208L1.91638e-05 -0.000125889L0.000995726 -0.000125889Z" fill="white"/>
</svg>
